<svg xmlns="http://www.w3.org/2000/svg" xmlns:xlink="http://www.w3.org/1999/xlink" width="500" zoomAndPan="magnify" viewBox="0 0 375 374.999991" height="500" preserveAspectRatio="xMidYMid meet" version="1.0"><defs><g/></defs><g fill="#ffc1b2" fill-opacity="0.302"><g transform="translate(112.552931, 206.359114)"><g><path d="M 33.78125 -11.265625 C 33.457031 -9.722656 33.109375 -8.320312 32.734375 -7.0625 C 32.367188 -5.800781 31.882812 -4.710938 31.28125 -3.796875 C 30.675781 -2.890625 29.90625 -2.191406 28.96875 -1.703125 C 28.03125 -1.210938 26.851562 -0.96875 25.4375 -0.96875 L 12.96875 -0.96875 L 12.96875 -39.921875 L 18.75 -39.921875 L 18.75 -40.890625 L 1.828125 -40.890625 L 1.828125 -39.921875 L 7.0625 -39.921875 L 7.0625 -0.96875 L 1.828125 -0.96875 L 1.828125 0 L 33.171875 0 C 34.347656 0 34.9375 -0.648438 34.9375 -1.953125 L 34.9375 -11.078125 C 34.9375 -12.046875 34.773438 -12.53125 34.453125 -12.53125 C 34.160156 -12.53125 33.9375 -12.109375 33.78125 -11.265625 Z M 33.78125 -11.265625 "/></g></g></g><g fill="#ffc1b2" fill-opacity="0.302"><g transform="translate(146.567439, 206.359114)"><g><path d="M 23.921875 -14.78125 C 23.878906 -15.4375 23.664062 -16.332031 23.28125 -17.46875 C 22.894531 -18.601562 22.296875 -19.695312 21.484375 -20.75 C 20.671875 -21.800781 19.59375 -22.722656 18.25 -23.515625 C 16.914062 -24.304688 15.273438 -24.703125 13.328125 -24.703125 C 11.703125 -24.703125 10.1875 -24.316406 8.78125 -23.546875 C 7.382812 -22.773438 6.179688 -21.78125 5.171875 -20.5625 C 4.160156 -19.351562 3.367188 -17.976562 2.796875 -16.4375 C 2.234375 -14.894531 1.953125 -13.332031 1.953125 -11.75 C 1.953125 -10.164062 2.234375 -8.625 2.796875 -7.125 C 3.367188 -5.625 4.160156 -4.285156 5.171875 -3.109375 C 6.179688 -1.929688 7.40625 -0.972656 8.84375 -0.234375 C 10.289062 0.492188 11.867188 0.859375 13.578125 0.859375 C 14.953125 0.859375 16.207031 0.664062 17.34375 0.28125 C 18.476562 -0.101562 19.484375 -0.628906 20.359375 -1.296875 C 21.234375 -1.972656 21.972656 -2.753906 22.578125 -3.640625 C 23.179688 -4.535156 23.671875 -5.472656 24.046875 -6.453125 C 24.160156 -6.734375 24.21875 -7.015625 24.21875 -7.296875 C 24.21875 -7.585938 24.097656 -7.734375 23.859375 -7.734375 C 23.648438 -7.734375 23.46875 -7.53125 23.3125 -7.125 C 22.945312 -6.269531 22.488281 -5.414062 21.9375 -4.5625 C 21.394531 -3.707031 20.726562 -2.957031 19.9375 -2.3125 C 19.144531 -1.664062 18.238281 -1.140625 17.21875 -0.734375 C 16.207031 -0.328125 15.03125 -0.125 13.6875 -0.125 C 12.070312 -0.125 10.765625 -0.726562 9.765625 -1.9375 C 8.773438 -3.15625 8.28125 -5.109375 8.28125 -7.796875 L 8.28125 -14 L 22.9375 -14 C 23.59375 -14 23.921875 -14.257812 23.921875 -14.78125 Z M 8.28125 -14.96875 L 8.28125 -17.40625 C 8.28125 -18.75 8.429688 -19.832031 8.734375 -20.65625 C 9.035156 -21.488281 9.429688 -22.128906 9.921875 -22.578125 C 10.410156 -23.023438 10.957031 -23.328125 11.5625 -23.484375 C 12.164062 -23.648438 12.773438 -23.734375 13.390625 -23.734375 C 14.359375 -23.734375 15.15625 -23.5625 15.78125 -23.21875 C 16.414062 -22.875 16.914062 -22.414062 17.28125 -21.84375 C 17.644531 -21.28125 17.890625 -20.648438 18.015625 -19.953125 C 18.140625 -19.265625 18.203125 -18.554688 18.203125 -17.828125 C 18.203125 -15.921875 17.894531 -14.96875 17.28125 -14.96875 Z M 8.28125 -14.96875 "/></g></g></g><g fill="#ffc1b2" fill-opacity="0.302"><g transform="translate(170.54172, 206.359114)"><g><path d="M 7.96875 -15.21875 L 7.96875 -17.28125 C 7.96875 -19.757812 8.3125 -21.453125 9 -22.359375 C 9.695312 -23.273438 10.773438 -23.734375 12.234375 -23.734375 C 13.691406 -23.734375 14.765625 -23.273438 15.453125 -22.359375 C 16.148438 -21.453125 16.5 -19.757812 16.5 -17.28125 L 16.5 -15.21875 C 16.5 -13.144531 16.210938 -11.5625 15.640625 -10.46875 C 15.066406 -9.375 13.929688 -8.828125 12.234375 -8.828125 C 10.523438 -8.828125 9.382812 -9.375 8.8125 -10.46875 C 8.25 -11.5625 7.96875 -13.144531 7.96875 -15.21875 Z M 8.765625 -8.34375 C 9.128906 -8.21875 9.601562 -8.101562 10.1875 -8 C 10.78125 -7.894531 11.460938 -7.84375 12.234375 -7.84375 C 14.054688 -7.84375 15.597656 -8.144531 16.859375 -8.75 C 18.117188 -9.363281 19.132812 -10.109375 19.90625 -10.984375 C 20.675781 -11.859375 21.222656 -12.78125 21.546875 -13.75 C 21.867188 -14.726562 22.03125 -15.582031 22.03125 -16.3125 C 22.03125 -18.75 21.078125 -20.816406 19.171875 -22.515625 C 20.109375 -23.609375 20.976562 -24.335938 21.78125 -24.703125 C 21.625 -24.378906 21.546875 -24.054688 21.546875 -23.734375 C 21.546875 -23.242188 21.71875 -22.835938 22.0625 -22.515625 C 22.40625 -22.191406 22.878906 -22.03125 23.484375 -22.03125 C 24.140625 -22.03125 24.609375 -22.222656 24.890625 -22.609375 C 25.171875 -22.992188 25.3125 -23.390625 25.3125 -23.796875 C 25.3125 -24.398438 25.085938 -24.863281 24.640625 -25.1875 C 24.203125 -25.519531 23.675781 -25.6875 23.0625 -25.6875 C 21.519531 -25.6875 19.976562 -24.8125 18.4375 -23.0625 C 17.875 -23.550781 17.023438 -23.945312 15.890625 -24.25 C 14.753906 -24.550781 13.535156 -24.703125 12.234375 -24.703125 C 10.648438 -24.703125 9.238281 -24.46875 8 -24 C 6.757812 -23.539062 5.734375 -22.914062 4.921875 -22.125 C 4.117188 -21.332031 3.503906 -20.425781 3.078125 -19.40625 C 2.648438 -18.394531 2.4375 -17.363281 2.4375 -16.3125 C 2.4375 -14.519531 2.953125 -12.972656 3.984375 -11.671875 C 5.015625 -10.378906 6.179688 -9.410156 7.484375 -8.765625 C 5.535156 -8.191406 4.164062 -7.457031 3.375 -6.5625 C 2.582031 -5.675781 2.1875 -4.523438 2.1875 -3.109375 C 2.1875 -2.171875 2.335938 -1.359375 2.640625 -0.671875 C 2.953125 0.015625 3.359375 0.601562 3.859375 1.09375 C 4.367188 1.582031 4.9375 1.957031 5.5625 2.21875 C 6.195312 2.476562 6.816406 2.648438 7.421875 2.734375 C 5.722656 3.347656 4.40625 4.203125 3.46875 5.296875 C 2.53125 6.390625 2.0625 7.726562 2.0625 9.3125 C 2.0625 10.445312 2.328125 11.441406 2.859375 12.296875 C 3.390625 13.148438 4.140625 13.847656 5.109375 14.390625 C 6.085938 14.941406 7.242188 15.359375 8.578125 15.640625 C 9.921875 15.921875 11.40625 16.0625 13.03125 16.0625 C 14.644531 16.0625 16.160156 15.835938 17.578125 15.390625 C 19.003906 14.953125 20.253906 14.296875 21.328125 13.421875 C 22.398438 12.546875 23.238281 11.476562 23.84375 10.21875 C 24.457031 8.96875 24.765625 7.507812 24.765625 5.84375 C 24.765625 3.289062 24.082031 1.414062 22.71875 0.21875 C 21.363281 -0.976562 19.59375 -1.578125 17.40625 -1.578125 L 7.609375 -1.578125 C 5.046875 -1.578125 3.765625 -2.453125 3.765625 -4.203125 C 3.765625 -5.378906 4.234375 -6.257812 5.171875 -6.84375 C 6.109375 -7.4375 7.304688 -7.9375 8.765625 -8.34375 Z M 22.515625 8.34375 C 22.515625 9.550781 22.21875 10.582031 21.625 11.4375 C 21.039062 12.289062 20.300781 12.988281 19.40625 13.53125 C 18.519531 14.082031 17.519531 14.476562 16.40625 14.71875 C 15.289062 14.96875 14.222656 15.09375 13.203125 15.09375 C 11.546875 15.09375 10.1875 14.867188 9.125 14.421875 C 8.070312 13.972656 7.238281 13.414062 6.625 12.75 C 6.019531 12.082031 5.59375 11.332031 5.34375 10.5 C 5.101562 9.664062 4.984375 8.882812 4.984375 8.15625 C 4.984375 7.382812 5.113281 6.660156 5.375 5.984375 C 5.644531 5.316406 5.972656 4.75 6.359375 4.28125 C 6.742188 3.820312 7.148438 3.457031 7.578125 3.1875 C 8.003906 2.925781 8.378906 2.796875 8.703125 2.796875 L 16.4375 2.796875 C 17.40625 2.796875 18.265625 2.945312 19.015625 3.25 C 19.765625 3.5625 20.40625 3.976562 20.9375 4.5 C 21.46875 5.03125 21.863281 5.617188 22.125 6.265625 C 22.382812 6.921875 22.515625 7.613281 22.515625 8.34375 Z M 22.515625 8.34375 "/></g></g></g><g fill="#ffc1b2" fill-opacity="0.302"><g transform="translate(194.029202, 206.359114)"><g><path d="M 7 -23.25 C 5.695312 -22.394531 5.046875 -21.378906 5.046875 -20.203125 C 5.046875 -19.640625 5.238281 -19.125 5.625 -18.65625 C 6.007812 -18.1875 6.550781 -17.953125 7.25 -17.953125 C 7.9375 -17.953125 8.492188 -18.15625 8.921875 -18.5625 C 9.347656 -18.96875 9.5625 -19.472656 9.5625 -20.078125 C 9.5625 -20.367188 9.507812 -20.664062 9.40625 -20.96875 C 9.300781 -21.269531 9.109375 -21.5625 8.828125 -21.84375 C 8.617188 -22.050781 8.453125 -22.191406 8.328125 -22.265625 C 8.210938 -22.347656 8.15625 -22.453125 8.15625 -22.578125 C 8.15625 -22.742188 8.273438 -22.90625 8.515625 -23.0625 C 8.765625 -23.226562 9.070312 -23.367188 9.4375 -23.484375 C 9.800781 -23.609375 10.210938 -23.710938 10.671875 -23.796875 C 11.140625 -23.878906 11.597656 -23.921875 12.046875 -23.921875 C 13.304688 -23.921875 14.300781 -23.675781 15.03125 -23.1875 C 15.757812 -22.695312 16.125 -21.765625 16.125 -20.390625 L 16.125 -13.203125 C 14.257812 -13.203125 12.515625 -13.007812 10.890625 -12.625 C 9.265625 -12.238281 7.84375 -11.679688 6.625 -10.953125 C 5.414062 -10.222656 4.460938 -9.320312 3.765625 -8.25 C 3.078125 -7.175781 2.734375 -5.96875 2.734375 -4.625 C 2.734375 -3.65625 2.90625 -2.8125 3.25 -2.09375 C 3.59375 -1.382812 4.066406 -0.816406 4.671875 -0.390625 C 5.285156 0.0351562 5.988281 0.347656 6.78125 0.546875 C 7.570312 0.753906 8.414062 0.859375 9.3125 0.859375 C 10.25 0.859375 11.09375 0.742188 11.84375 0.515625 C 12.59375 0.296875 13.257812 0.015625 13.84375 -0.328125 C 14.4375 -0.679688 14.929688 -1.050781 15.328125 -1.4375 C 15.734375 -1.820312 16.0625 -2.195312 16.3125 -2.5625 C 16.4375 -1.707031 16.820312 -0.921875 17.46875 -0.203125 C 18.113281 0.503906 19.25 0.859375 20.875 0.859375 C 21.925781 0.859375 22.804688 0.691406 23.515625 0.359375 C 24.234375 0.0351562 24.8125 -0.34375 25.25 -0.78125 C 25.695312 -1.226562 26.007812 -1.6875 26.1875 -2.15625 C 26.375 -2.625 26.46875 -2.976562 26.46875 -3.21875 C 26.46875 -3.425781 26.410156 -3.53125 26.296875 -3.53125 C 26.171875 -3.53125 26.023438 -3.367188 25.859375 -3.046875 C 25.535156 -2.359375 25.128906 -1.800781 24.640625 -1.375 C 24.160156 -0.945312 23.632812 -0.734375 23.0625 -0.734375 C 22.25 -0.734375 21.757812 -1.066406 21.59375 -1.734375 C 21.4375 -2.398438 21.359375 -3.320312 21.359375 -4.5 L 21.359375 -19.234375 C 21.359375 -20.972656 20.707031 -22.316406 19.40625 -23.265625 C 18.113281 -24.222656 16.128906 -24.703125 13.453125 -24.703125 C 12.191406 -24.703125 10.984375 -24.570312 9.828125 -24.3125 C 8.671875 -24.050781 7.726562 -23.695312 7 -23.25 Z M 16.125 -12.59375 L 16.125 -4.140625 C 16.125 -3.773438 15.953125 -3.390625 15.609375 -2.984375 C 15.265625 -2.578125 14.835938 -2.203125 14.328125 -1.859375 C 13.828125 -1.515625 13.300781 -1.238281 12.75 -1.03125 C 12.195312 -0.832031 11.738281 -0.734375 11.375 -0.734375 C 10.125 -0.734375 9.171875 -1.21875 8.515625 -2.1875 C 7.867188 -3.164062 7.546875 -4.484375 7.546875 -6.140625 C 7.546875 -7.484375 7.785156 -8.5625 8.265625 -9.375 C 8.753906 -10.1875 9.394531 -10.8125 10.1875 -11.25 C 10.976562 -11.695312 11.890625 -12.007812 12.921875 -12.1875 C 13.960938 -12.375 15.03125 -12.507812 16.125 -12.59375 Z M 16.125 -12.59375 "/></g></g></g><g fill="#ffc1b2" fill-opacity="0.302"><g transform="translate(218.551128, 206.359114)"><g><path d="M 8.34375 -10.53125 L 8.34375 -13.203125 C 8.34375 -15.191406 8.460938 -16.851562 8.703125 -18.1875 C 8.941406 -19.53125 9.316406 -20.617188 9.828125 -21.453125 C 10.335938 -22.285156 10.976562 -22.875 11.75 -23.21875 C 12.519531 -23.5625 13.429688 -23.734375 14.484375 -23.734375 C 15.984375 -23.734375 17.003906 -23.539062 17.546875 -23.15625 C 18.097656 -22.769531 18.375 -22.492188 18.375 -22.328125 C 18.375 -22.171875 18.316406 -22.03125 18.203125 -21.90625 C 17.910156 -21.582031 17.691406 -21.25 17.546875 -20.90625 C 17.410156 -20.5625 17.34375 -20.125 17.34375 -19.59375 C 17.34375 -18.78125 17.601562 -18.160156 18.125 -17.734375 C 18.65625 -17.304688 19.269531 -17.09375 19.96875 -17.09375 C 20.769531 -17.09375 21.414062 -17.335938 21.90625 -17.828125 C 22.394531 -18.316406 22.640625 -18.945312 22.640625 -19.71875 C 22.640625 -20.488281 22.375 -21.1875 21.84375 -21.8125 C 21.320312 -22.445312 20.664062 -22.976562 19.875 -23.40625 C 19.082031 -23.832031 18.21875 -24.15625 17.28125 -24.375 C 16.351562 -24.59375 15.460938 -24.703125 14.609375 -24.703125 C 13.023438 -24.703125 11.484375 -24.390625 9.984375 -23.765625 C 8.484375 -23.140625 7.144531 -22.265625 5.96875 -21.140625 C 4.789062 -20.023438 3.835938 -18.675781 3.109375 -17.09375 C 2.378906 -15.519531 2.015625 -13.78125 2.015625 -11.875 C 2.015625 -9.925781 2.367188 -8.171875 3.078125 -6.609375 C 3.785156 -5.046875 4.71875 -3.703125 5.875 -2.578125 C 7.03125 -1.460938 8.347656 -0.609375 9.828125 -0.015625 C 11.304688 0.566406 12.796875 0.859375 14.296875 0.859375 C 15.796875 0.859375 17.113281 0.625 18.25 0.15625 C 19.394531 -0.3125 20.351562 -0.898438 21.125 -1.609375 C 21.894531 -2.316406 22.5 -3.066406 22.9375 -3.859375 C 23.382812 -4.648438 23.710938 -5.375 23.921875 -6.03125 C 24.003906 -6.269531 24.046875 -6.429688 24.046875 -6.515625 C 24.046875 -6.878906 23.878906 -7.0625 23.546875 -7.0625 C 23.304688 -7.0625 23.125 -6.859375 23 -6.453125 C 22.757812 -5.679688 22.394531 -4.921875 21.90625 -4.171875 C 21.414062 -3.421875 20.816406 -2.738281 20.109375 -2.125 C 19.398438 -1.519531 18.566406 -1.035156 17.609375 -0.671875 C 16.660156 -0.304688 15.617188 -0.125 14.484375 -0.125 C 13.222656 -0.125 12.195312 -0.304688 11.40625 -0.671875 C 10.613281 -1.035156 9.984375 -1.632812 9.515625 -2.46875 C 9.054688 -3.300781 8.742188 -4.375 8.578125 -5.6875 C 8.421875 -7.007812 8.34375 -8.625 8.34375 -10.53125 Z M 8.34375 -10.53125 "/></g></g></g><g fill="#ffc1b2" fill-opacity="0.302"><g transform="translate(241.065015, 206.359114)"><g><path d="M 1.828125 -23.859375 L 1.828125 -22.890625 L 5.84375 -22.890625 L 16 0.25 L 12.46875 9.5625 C 11.945312 10.894531 11.367188 11.882812 10.734375 12.53125 C 10.109375 13.1875 9.515625 13.515625 8.953125 13.515625 C 8.617188 13.515625 8.398438 13.429688 8.296875 13.265625 C 8.203125 13.109375 8.09375 12.90625 7.96875 12.65625 C 7.726562 12.132812 7.425781 11.738281 7.0625 11.46875 C 6.695312 11.207031 6.207031 11.078125 5.59375 11.078125 C 4.90625 11.078125 4.378906 11.300781 4.015625 11.75 C 3.648438 12.195312 3.46875 12.722656 3.46875 13.328125 C 3.46875 14.097656 3.71875 14.71875 4.21875 15.1875 C 4.726562 15.65625 5.515625 15.890625 6.578125 15.890625 C 7.992188 15.890625 9.3125 15.347656 10.53125 14.265625 C 11.75 13.191406 12.703125 11.722656 13.390625 9.859375 L 25.921875 -22.890625 L 29.9375 -22.890625 L 29.9375 -23.859375 L 20.328125 -23.859375 L 20.328125 -22.890625 L 24.828125 -22.890625 L 18.5 -6.328125 L 11.4375 -22.890625 L 16.125 -22.890625 L 16.125 -23.859375 Z M 1.828125 -23.859375 "/></g></g></g><g fill="#ffc1b2" fill-opacity="0.502"><g transform="translate(114.163675, 207.042843)"><g><path d="M 33.78125 -11.265625 C 33.457031 -9.722656 33.109375 -8.320312 32.734375 -7.0625 C 32.367188 -5.800781 31.882812 -4.710938 31.28125 -3.796875 C 30.675781 -2.890625 29.90625 -2.191406 28.96875 -1.703125 C 28.03125 -1.210938 26.851562 -0.96875 25.4375 -0.96875 L 12.96875 -0.96875 L 12.96875 -39.921875 L 18.75 -39.921875 L 18.75 -40.890625 L 1.828125 -40.890625 L 1.828125 -39.921875 L 7.0625 -39.921875 L 7.0625 -0.96875 L 1.828125 -0.96875 L 1.828125 0 L 33.171875 0 C 34.347656 0 34.9375 -0.648438 34.9375 -1.953125 L 34.9375 -11.078125 C 34.9375 -12.046875 34.773438 -12.53125 34.453125 -12.53125 C 34.160156 -12.53125 33.9375 -12.109375 33.78125 -11.265625 Z M 33.78125 -11.265625 "/></g></g></g><g fill="#ffc1b2" fill-opacity="0.502"><g transform="translate(148.178183, 207.042843)"><g><path d="M 23.921875 -14.78125 C 23.878906 -15.4375 23.664062 -16.332031 23.28125 -17.46875 C 22.894531 -18.601562 22.296875 -19.695312 21.484375 -20.75 C 20.671875 -21.800781 19.59375 -22.722656 18.25 -23.515625 C 16.914062 -24.304688 15.273438 -24.703125 13.328125 -24.703125 C 11.703125 -24.703125 10.1875 -24.316406 8.78125 -23.546875 C 7.382812 -22.773438 6.179688 -21.78125 5.171875 -20.5625 C 4.160156 -19.351562 3.367188 -17.976562 2.796875 -16.4375 C 2.234375 -14.894531 1.953125 -13.332031 1.953125 -11.75 C 1.953125 -10.164062 2.234375 -8.625 2.796875 -7.125 C 3.367188 -5.625 4.160156 -4.285156 5.171875 -3.109375 C 6.179688 -1.929688 7.40625 -0.972656 8.84375 -0.234375 C 10.289062 0.492188 11.867188 0.859375 13.578125 0.859375 C 14.953125 0.859375 16.207031 0.664062 17.34375 0.28125 C 18.476562 -0.101562 19.484375 -0.628906 20.359375 -1.296875 C 21.234375 -1.972656 21.972656 -2.753906 22.578125 -3.640625 C 23.179688 -4.535156 23.671875 -5.472656 24.046875 -6.453125 C 24.160156 -6.734375 24.21875 -7.015625 24.21875 -7.296875 C 24.21875 -7.585938 24.097656 -7.734375 23.859375 -7.734375 C 23.648438 -7.734375 23.46875 -7.53125 23.3125 -7.125 C 22.945312 -6.269531 22.488281 -5.414062 21.9375 -4.5625 C 21.394531 -3.707031 20.726562 -2.957031 19.9375 -2.3125 C 19.144531 -1.664062 18.238281 -1.140625 17.21875 -0.734375 C 16.207031 -0.328125 15.03125 -0.125 13.6875 -0.125 C 12.070312 -0.125 10.765625 -0.726562 9.765625 -1.9375 C 8.773438 -3.15625 8.28125 -5.109375 8.28125 -7.796875 L 8.28125 -14 L 22.9375 -14 C 23.59375 -14 23.921875 -14.257812 23.921875 -14.78125 Z M 8.28125 -14.96875 L 8.28125 -17.40625 C 8.28125 -18.75 8.429688 -19.832031 8.734375 -20.65625 C 9.035156 -21.488281 9.429688 -22.128906 9.921875 -22.578125 C 10.410156 -23.023438 10.957031 -23.328125 11.5625 -23.484375 C 12.164062 -23.648438 12.773438 -23.734375 13.390625 -23.734375 C 14.359375 -23.734375 15.15625 -23.5625 15.78125 -23.21875 C 16.414062 -22.875 16.914062 -22.414062 17.28125 -21.84375 C 17.644531 -21.28125 17.890625 -20.648438 18.015625 -19.953125 C 18.140625 -19.265625 18.203125 -18.554688 18.203125 -17.828125 C 18.203125 -15.921875 17.894531 -14.96875 17.28125 -14.96875 Z M 8.28125 -14.96875 "/></g></g></g><g fill="#ffc1b2" fill-opacity="0.502"><g transform="translate(172.152464, 207.042843)"><g><path d="M 7.96875 -15.21875 L 7.96875 -17.28125 C 7.96875 -19.757812 8.3125 -21.453125 9 -22.359375 C 9.695312 -23.273438 10.773438 -23.734375 12.234375 -23.734375 C 13.691406 -23.734375 14.765625 -23.273438 15.453125 -22.359375 C 16.148438 -21.453125 16.5 -19.757812 16.5 -17.28125 L 16.5 -15.21875 C 16.5 -13.144531 16.210938 -11.5625 15.640625 -10.46875 C 15.066406 -9.375 13.929688 -8.828125 12.234375 -8.828125 C 10.523438 -8.828125 9.382812 -9.375 8.8125 -10.46875 C 8.25 -11.5625 7.96875 -13.144531 7.96875 -15.21875 Z M 8.765625 -8.34375 C 9.128906 -8.21875 9.601562 -8.101562 10.1875 -8 C 10.78125 -7.894531 11.460938 -7.84375 12.234375 -7.84375 C 14.054688 -7.84375 15.597656 -8.144531 16.859375 -8.75 C 18.117188 -9.363281 19.132812 -10.109375 19.90625 -10.984375 C 20.675781 -11.859375 21.222656 -12.78125 21.546875 -13.75 C 21.867188 -14.726562 22.03125 -15.582031 22.03125 -16.3125 C 22.03125 -18.75 21.078125 -20.816406 19.171875 -22.515625 C 20.109375 -23.609375 20.976562 -24.335938 21.78125 -24.703125 C 21.625 -24.378906 21.546875 -24.054688 21.546875 -23.734375 C 21.546875 -23.242188 21.71875 -22.835938 22.0625 -22.515625 C 22.40625 -22.191406 22.878906 -22.03125 23.484375 -22.03125 C 24.140625 -22.03125 24.609375 -22.222656 24.890625 -22.609375 C 25.171875 -22.992188 25.3125 -23.390625 25.3125 -23.796875 C 25.3125 -24.398438 25.085938 -24.863281 24.640625 -25.1875 C 24.203125 -25.519531 23.675781 -25.6875 23.0625 -25.6875 C 21.519531 -25.6875 19.976562 -24.8125 18.4375 -23.0625 C 17.875 -23.550781 17.023438 -23.945312 15.890625 -24.25 C 14.753906 -24.550781 13.535156 -24.703125 12.234375 -24.703125 C 10.648438 -24.703125 9.238281 -24.46875 8 -24 C 6.757812 -23.539062 5.734375 -22.914062 4.921875 -22.125 C 4.117188 -21.332031 3.503906 -20.425781 3.078125 -19.40625 C 2.648438 -18.394531 2.4375 -17.363281 2.4375 -16.3125 C 2.4375 -14.519531 2.953125 -12.972656 3.984375 -11.671875 C 5.015625 -10.378906 6.179688 -9.410156 7.484375 -8.765625 C 5.535156 -8.191406 4.164062 -7.457031 3.375 -6.5625 C 2.582031 -5.675781 2.1875 -4.523438 2.1875 -3.109375 C 2.1875 -2.171875 2.335938 -1.359375 2.640625 -0.671875 C 2.953125 0.015625 3.359375 0.601562 3.859375 1.09375 C 4.367188 1.582031 4.9375 1.957031 5.5625 2.21875 C 6.195312 2.476562 6.816406 2.648438 7.421875 2.734375 C 5.722656 3.347656 4.40625 4.203125 3.46875 5.296875 C 2.53125 6.390625 2.0625 7.726562 2.0625 9.3125 C 2.0625 10.445312 2.328125 11.441406 2.859375 12.296875 C 3.390625 13.148438 4.140625 13.847656 5.109375 14.390625 C 6.085938 14.941406 7.242188 15.359375 8.578125 15.640625 C 9.921875 15.921875 11.40625 16.0625 13.03125 16.0625 C 14.644531 16.0625 16.160156 15.835938 17.578125 15.390625 C 19.003906 14.953125 20.253906 14.296875 21.328125 13.421875 C 22.398438 12.546875 23.238281 11.476562 23.84375 10.21875 C 24.457031 8.96875 24.765625 7.507812 24.765625 5.84375 C 24.765625 3.289062 24.082031 1.414062 22.71875 0.21875 C 21.363281 -0.976562 19.59375 -1.578125 17.40625 -1.578125 L 7.609375 -1.578125 C 5.046875 -1.578125 3.765625 -2.453125 3.765625 -4.203125 C 3.765625 -5.378906 4.234375 -6.257812 5.171875 -6.84375 C 6.109375 -7.4375 7.304688 -7.9375 8.765625 -8.34375 Z M 22.515625 8.34375 C 22.515625 9.550781 22.21875 10.582031 21.625 11.4375 C 21.039062 12.289062 20.300781 12.988281 19.40625 13.53125 C 18.519531 14.082031 17.519531 14.476562 16.40625 14.71875 C 15.289062 14.96875 14.222656 15.09375 13.203125 15.09375 C 11.546875 15.09375 10.1875 14.867188 9.125 14.421875 C 8.070312 13.972656 7.238281 13.414062 6.625 12.75 C 6.019531 12.082031 5.59375 11.332031 5.34375 10.5 C 5.101562 9.664062 4.984375 8.882812 4.984375 8.15625 C 4.984375 7.382812 5.113281 6.660156 5.375 5.984375 C 5.644531 5.316406 5.972656 4.75 6.359375 4.28125 C 6.742188 3.820312 7.148438 3.457031 7.578125 3.1875 C 8.003906 2.925781 8.378906 2.796875 8.703125 2.796875 L 16.4375 2.796875 C 17.40625 2.796875 18.265625 2.945312 19.015625 3.25 C 19.765625 3.5625 20.40625 3.976562 20.9375 4.5 C 21.46875 5.03125 21.863281 5.617188 22.125 6.265625 C 22.382812 6.921875 22.515625 7.613281 22.515625 8.34375 Z M 22.515625 8.34375 "/></g></g></g><g fill="#ffc1b2" fill-opacity="0.502"><g transform="translate(195.639946, 207.042843)"><g><path d="M 7 -23.25 C 5.695312 -22.394531 5.046875 -21.378906 5.046875 -20.203125 C 5.046875 -19.640625 5.238281 -19.125 5.625 -18.65625 C 6.007812 -18.1875 6.550781 -17.953125 7.25 -17.953125 C 7.9375 -17.953125 8.492188 -18.15625 8.921875 -18.5625 C 9.347656 -18.96875 9.5625 -19.472656 9.5625 -20.078125 C 9.5625 -20.367188 9.507812 -20.664062 9.40625 -20.96875 C 9.300781 -21.269531 9.109375 -21.5625 8.828125 -21.84375 C 8.617188 -22.050781 8.453125 -22.191406 8.328125 -22.265625 C 8.210938 -22.347656 8.15625 -22.453125 8.15625 -22.578125 C 8.15625 -22.742188 8.273438 -22.90625 8.515625 -23.0625 C 8.765625 -23.226562 9.070312 -23.367188 9.4375 -23.484375 C 9.800781 -23.609375 10.210938 -23.710938 10.671875 -23.796875 C 11.140625 -23.878906 11.597656 -23.921875 12.046875 -23.921875 C 13.304688 -23.921875 14.300781 -23.675781 15.03125 -23.1875 C 15.757812 -22.695312 16.125 -21.765625 16.125 -20.390625 L 16.125 -13.203125 C 14.257812 -13.203125 12.515625 -13.007812 10.890625 -12.625 C 9.265625 -12.238281 7.84375 -11.679688 6.625 -10.953125 C 5.414062 -10.222656 4.460938 -9.320312 3.765625 -8.25 C 3.078125 -7.175781 2.734375 -5.96875 2.734375 -4.625 C 2.734375 -3.65625 2.90625 -2.8125 3.25 -2.09375 C 3.59375 -1.382812 4.066406 -0.816406 4.671875 -0.390625 C 5.285156 0.0351562 5.988281 0.347656 6.78125 0.546875 C 7.570312 0.753906 8.414062 0.859375 9.3125 0.859375 C 10.25 0.859375 11.09375 0.742188 11.84375 0.515625 C 12.59375 0.296875 13.257812 0.015625 13.84375 -0.328125 C 14.4375 -0.679688 14.929688 -1.050781 15.328125 -1.4375 C 15.734375 -1.820312 16.0625 -2.195312 16.3125 -2.5625 C 16.4375 -1.707031 16.820312 -0.921875 17.46875 -0.203125 C 18.113281 0.503906 19.25 0.859375 20.875 0.859375 C 21.925781 0.859375 22.804688 0.691406 23.515625 0.359375 C 24.234375 0.0351562 24.8125 -0.34375 25.25 -0.78125 C 25.695312 -1.226562 26.007812 -1.6875 26.1875 -2.15625 C 26.375 -2.625 26.46875 -2.976562 26.46875 -3.21875 C 26.46875 -3.425781 26.410156 -3.53125 26.296875 -3.53125 C 26.171875 -3.53125 26.023438 -3.367188 25.859375 -3.046875 C 25.535156 -2.359375 25.128906 -1.800781 24.640625 -1.375 C 24.160156 -0.945312 23.632812 -0.734375 23.0625 -0.734375 C 22.25 -0.734375 21.757812 -1.066406 21.59375 -1.734375 C 21.4375 -2.398438 21.359375 -3.320312 21.359375 -4.5 L 21.359375 -19.234375 C 21.359375 -20.972656 20.707031 -22.316406 19.40625 -23.265625 C 18.113281 -24.222656 16.128906 -24.703125 13.453125 -24.703125 C 12.191406 -24.703125 10.984375 -24.570312 9.828125 -24.3125 C 8.671875 -24.050781 7.726562 -23.695312 7 -23.25 Z M 16.125 -12.59375 L 16.125 -4.140625 C 16.125 -3.773438 15.953125 -3.390625 15.609375 -2.984375 C 15.265625 -2.578125 14.835938 -2.203125 14.328125 -1.859375 C 13.828125 -1.515625 13.300781 -1.238281 12.75 -1.03125 C 12.195312 -0.832031 11.738281 -0.734375 11.375 -0.734375 C 10.125 -0.734375 9.171875 -1.21875 8.515625 -2.1875 C 7.867188 -3.164062 7.546875 -4.484375 7.546875 -6.140625 C 7.546875 -7.484375 7.785156 -8.5625 8.265625 -9.375 C 8.753906 -10.1875 9.394531 -10.8125 10.1875 -11.25 C 10.976562 -11.695312 11.890625 -12.007812 12.921875 -12.1875 C 13.960938 -12.375 15.03125 -12.507812 16.125 -12.59375 Z M 16.125 -12.59375 "/></g></g></g><g fill="#ffc1b2" fill-opacity="0.502"><g transform="translate(220.161872, 207.042843)"><g><path d="M 8.34375 -10.53125 L 8.34375 -13.203125 C 8.34375 -15.191406 8.460938 -16.851562 8.703125 -18.1875 C 8.941406 -19.53125 9.316406 -20.617188 9.828125 -21.453125 C 10.335938 -22.285156 10.976562 -22.875 11.75 -23.21875 C 12.519531 -23.5625 13.429688 -23.734375 14.484375 -23.734375 C 15.984375 -23.734375 17.003906 -23.539062 17.546875 -23.15625 C 18.097656 -22.769531 18.375 -22.492188 18.375 -22.328125 C 18.375 -22.171875 18.316406 -22.03125 18.203125 -21.90625 C 17.910156 -21.582031 17.691406 -21.25 17.546875 -20.90625 C 17.410156 -20.5625 17.34375 -20.125 17.34375 -19.59375 C 17.34375 -18.78125 17.601562 -18.160156 18.125 -17.734375 C 18.65625 -17.304688 19.269531 -17.09375 19.96875 -17.09375 C 20.769531 -17.09375 21.414062 -17.335938 21.90625 -17.828125 C 22.394531 -18.316406 22.640625 -18.945312 22.640625 -19.71875 C 22.640625 -20.488281 22.375 -21.1875 21.84375 -21.8125 C 21.320312 -22.445312 20.664062 -22.976562 19.875 -23.40625 C 19.082031 -23.832031 18.21875 -24.15625 17.28125 -24.375 C 16.351562 -24.59375 15.460938 -24.703125 14.609375 -24.703125 C 13.023438 -24.703125 11.484375 -24.390625 9.984375 -23.765625 C 8.484375 -23.140625 7.144531 -22.265625 5.96875 -21.140625 C 4.789062 -20.023438 3.835938 -18.675781 3.109375 -17.09375 C 2.378906 -15.519531 2.015625 -13.78125 2.015625 -11.875 C 2.015625 -9.925781 2.367188 -8.171875 3.078125 -6.609375 C 3.785156 -5.046875 4.71875 -3.703125 5.875 -2.578125 C 7.03125 -1.460938 8.347656 -0.609375 9.828125 -0.015625 C 11.304688 0.566406 12.796875 0.859375 14.296875 0.859375 C 15.796875 0.859375 17.113281 0.625 18.25 0.15625 C 19.394531 -0.3125 20.351562 -0.898438 21.125 -1.609375 C 21.894531 -2.316406 22.5 -3.066406 22.9375 -3.859375 C 23.382812 -4.648438 23.710938 -5.375 23.921875 -6.03125 C 24.003906 -6.269531 24.046875 -6.429688 24.046875 -6.515625 C 24.046875 -6.878906 23.878906 -7.0625 23.546875 -7.0625 C 23.304688 -7.0625 23.125 -6.859375 23 -6.453125 C 22.757812 -5.679688 22.394531 -4.921875 21.90625 -4.171875 C 21.414062 -3.421875 20.816406 -2.738281 20.109375 -2.125 C 19.398438 -1.519531 18.566406 -1.035156 17.609375 -0.671875 C 16.660156 -0.304688 15.617188 -0.125 14.484375 -0.125 C 13.222656 -0.125 12.195312 -0.304688 11.40625 -0.671875 C 10.613281 -1.035156 9.984375 -1.632812 9.515625 -2.46875 C 9.054688 -3.300781 8.742188 -4.375 8.578125 -5.6875 C 8.421875 -7.007812 8.34375 -8.625 8.34375 -10.53125 Z M 8.34375 -10.53125 "/></g></g></g><g fill="#ffc1b2" fill-opacity="0.502"><g transform="translate(242.675759, 207.042843)"><g><path d="M 1.828125 -23.859375 L 1.828125 -22.890625 L 5.84375 -22.890625 L 16 0.25 L 12.46875 9.5625 C 11.945312 10.894531 11.367188 11.882812 10.734375 12.53125 C 10.109375 13.1875 9.515625 13.515625 8.953125 13.515625 C 8.617188 13.515625 8.398438 13.429688 8.296875 13.265625 C 8.203125 13.109375 8.09375 12.90625 7.96875 12.65625 C 7.726562 12.132812 7.425781 11.738281 7.0625 11.46875 C 6.695312 11.207031 6.207031 11.078125 5.59375 11.078125 C 4.90625 11.078125 4.378906 11.300781 4.015625 11.75 C 3.648438 12.195312 3.46875 12.722656 3.46875 13.328125 C 3.46875 14.097656 3.71875 14.71875 4.21875 15.1875 C 4.726562 15.65625 5.515625 15.890625 6.578125 15.890625 C 7.992188 15.890625 9.3125 15.347656 10.53125 14.265625 C 11.75 13.191406 12.703125 11.722656 13.390625 9.859375 L 25.921875 -22.890625 L 29.9375 -22.890625 L 29.9375 -23.859375 L 20.328125 -23.859375 L 20.328125 -22.890625 L 24.828125 -22.890625 L 18.5 -6.328125 L 11.4375 -22.890625 L 16.125 -22.890625 L 16.125 -23.859375 Z M 1.828125 -23.859375 "/></g></g></g><g fill="#3d3d3d" fill-opacity="1"><g transform="translate(115.774419, 207.726559)"><g><path d="M 33.78125 -11.265625 C 33.457031 -9.722656 33.109375 -8.320312 32.734375 -7.0625 C 32.367188 -5.800781 31.882812 -4.710938 31.28125 -3.796875 C 30.675781 -2.890625 29.90625 -2.191406 28.96875 -1.703125 C 28.03125 -1.210938 26.851562 -0.96875 25.4375 -0.96875 L 12.96875 -0.96875 L 12.96875 -39.921875 L 18.75 -39.921875 L 18.75 -40.890625 L 1.828125 -40.890625 L 1.828125 -39.921875 L 7.0625 -39.921875 L 7.0625 -0.96875 L 1.828125 -0.96875 L 1.828125 0 L 33.171875 0 C 34.347656 0 34.9375 -0.648438 34.9375 -1.953125 L 34.9375 -11.078125 C 34.9375 -12.046875 34.773438 -12.53125 34.453125 -12.53125 C 34.160156 -12.53125 33.9375 -12.109375 33.78125 -11.265625 Z M 33.78125 -11.265625 "/></g></g></g><g fill="#3d3d3d" fill-opacity="1"><g transform="translate(149.788927, 207.726559)"><g><path d="M 23.921875 -14.78125 C 23.878906 -15.4375 23.664062 -16.332031 23.28125 -17.46875 C 22.894531 -18.601562 22.296875 -19.695312 21.484375 -20.75 C 20.671875 -21.800781 19.59375 -22.722656 18.25 -23.515625 C 16.914062 -24.304688 15.273438 -24.703125 13.328125 -24.703125 C 11.703125 -24.703125 10.1875 -24.316406 8.78125 -23.546875 C 7.382812 -22.773438 6.179688 -21.78125 5.171875 -20.5625 C 4.160156 -19.351562 3.367188 -17.976562 2.796875 -16.4375 C 2.234375 -14.894531 1.953125 -13.332031 1.953125 -11.75 C 1.953125 -10.164062 2.234375 -8.625 2.796875 -7.125 C 3.367188 -5.625 4.160156 -4.285156 5.171875 -3.109375 C 6.179688 -1.929688 7.40625 -0.972656 8.84375 -0.234375 C 10.289062 0.492188 11.867188 0.859375 13.578125 0.859375 C 14.953125 0.859375 16.207031 0.664062 17.34375 0.28125 C 18.476562 -0.101562 19.484375 -0.628906 20.359375 -1.296875 C 21.234375 -1.972656 21.972656 -2.753906 22.578125 -3.640625 C 23.179688 -4.535156 23.671875 -5.472656 24.046875 -6.453125 C 24.160156 -6.734375 24.21875 -7.015625 24.21875 -7.296875 C 24.21875 -7.585938 24.097656 -7.734375 23.859375 -7.734375 C 23.648438 -7.734375 23.46875 -7.53125 23.3125 -7.125 C 22.945312 -6.269531 22.488281 -5.414062 21.9375 -4.5625 C 21.394531 -3.707031 20.726562 -2.957031 19.9375 -2.3125 C 19.144531 -1.664062 18.238281 -1.140625 17.21875 -0.734375 C 16.207031 -0.328125 15.03125 -0.125 13.6875 -0.125 C 12.070312 -0.125 10.765625 -0.726562 9.765625 -1.9375 C 8.773438 -3.15625 8.28125 -5.109375 8.28125 -7.796875 L 8.28125 -14 L 22.9375 -14 C 23.59375 -14 23.921875 -14.257812 23.921875 -14.78125 Z M 8.28125 -14.96875 L 8.28125 -17.40625 C 8.28125 -18.75 8.429688 -19.832031 8.734375 -20.65625 C 9.035156 -21.488281 9.429688 -22.128906 9.921875 -22.578125 C 10.410156 -23.023438 10.957031 -23.328125 11.5625 -23.484375 C 12.164062 -23.648438 12.773438 -23.734375 13.390625 -23.734375 C 14.359375 -23.734375 15.15625 -23.5625 15.78125 -23.21875 C 16.414062 -22.875 16.914062 -22.414062 17.28125 -21.84375 C 17.644531 -21.28125 17.890625 -20.648438 18.015625 -19.953125 C 18.140625 -19.265625 18.203125 -18.554688 18.203125 -17.828125 C 18.203125 -15.921875 17.894531 -14.96875 17.28125 -14.96875 Z M 8.28125 -14.96875 "/></g></g></g><g fill="#3d3d3d" fill-opacity="1"><g transform="translate(173.763207, 207.726559)"><g><path d="M 7.96875 -15.21875 L 7.96875 -17.28125 C 7.96875 -19.757812 8.3125 -21.453125 9 -22.359375 C 9.695312 -23.273438 10.773438 -23.734375 12.234375 -23.734375 C 13.691406 -23.734375 14.765625 -23.273438 15.453125 -22.359375 C 16.148438 -21.453125 16.5 -19.757812 16.5 -17.28125 L 16.5 -15.21875 C 16.5 -13.144531 16.210938 -11.5625 15.640625 -10.46875 C 15.066406 -9.375 13.929688 -8.828125 12.234375 -8.828125 C 10.523438 -8.828125 9.382812 -9.375 8.8125 -10.46875 C 8.25 -11.5625 7.96875 -13.144531 7.96875 -15.21875 Z M 8.765625 -8.34375 C 9.128906 -8.21875 9.601562 -8.101562 10.1875 -8 C 10.78125 -7.894531 11.460938 -7.84375 12.234375 -7.84375 C 14.054688 -7.84375 15.597656 -8.144531 16.859375 -8.75 C 18.117188 -9.363281 19.132812 -10.109375 19.90625 -10.984375 C 20.675781 -11.859375 21.222656 -12.78125 21.546875 -13.75 C 21.867188 -14.726562 22.03125 -15.582031 22.03125 -16.3125 C 22.03125 -18.75 21.078125 -20.816406 19.171875 -22.515625 C 20.109375 -23.609375 20.976562 -24.335938 21.78125 -24.703125 C 21.625 -24.378906 21.546875 -24.054688 21.546875 -23.734375 C 21.546875 -23.242188 21.71875 -22.835938 22.0625 -22.515625 C 22.40625 -22.191406 22.878906 -22.03125 23.484375 -22.03125 C 24.140625 -22.03125 24.609375 -22.222656 24.890625 -22.609375 C 25.171875 -22.992188 25.3125 -23.390625 25.3125 -23.796875 C 25.3125 -24.398438 25.085938 -24.863281 24.640625 -25.1875 C 24.203125 -25.519531 23.675781 -25.6875 23.0625 -25.6875 C 21.519531 -25.6875 19.976562 -24.8125 18.4375 -23.0625 C 17.875 -23.550781 17.023438 -23.945312 15.890625 -24.25 C 14.753906 -24.550781 13.535156 -24.703125 12.234375 -24.703125 C 10.648438 -24.703125 9.238281 -24.46875 8 -24 C 6.757812 -23.539062 5.734375 -22.914062 4.921875 -22.125 C 4.117188 -21.332031 3.503906 -20.425781 3.078125 -19.40625 C 2.648438 -18.394531 2.4375 -17.363281 2.4375 -16.3125 C 2.4375 -14.519531 2.953125 -12.972656 3.984375 -11.671875 C 5.015625 -10.378906 6.179688 -9.410156 7.484375 -8.765625 C 5.535156 -8.191406 4.164062 -7.457031 3.375 -6.5625 C 2.582031 -5.675781 2.1875 -4.523438 2.1875 -3.109375 C 2.1875 -2.171875 2.335938 -1.359375 2.640625 -0.671875 C 2.953125 0.015625 3.359375 0.601562 3.859375 1.09375 C 4.367188 1.582031 4.9375 1.957031 5.5625 2.21875 C 6.195312 2.476562 6.816406 2.648438 7.421875 2.734375 C 5.722656 3.347656 4.40625 4.203125 3.46875 5.296875 C 2.53125 6.390625 2.0625 7.726562 2.0625 9.3125 C 2.0625 10.445312 2.328125 11.441406 2.859375 12.296875 C 3.390625 13.148438 4.140625 13.847656 5.109375 14.390625 C 6.085938 14.941406 7.242188 15.359375 8.578125 15.640625 C 9.921875 15.921875 11.40625 16.0625 13.03125 16.0625 C 14.644531 16.0625 16.160156 15.835938 17.578125 15.390625 C 19.003906 14.953125 20.253906 14.296875 21.328125 13.421875 C 22.398438 12.546875 23.238281 11.476562 23.84375 10.21875 C 24.457031 8.96875 24.765625 7.507812 24.765625 5.84375 C 24.765625 3.289062 24.082031 1.414062 22.71875 0.21875 C 21.363281 -0.976562 19.59375 -1.578125 17.40625 -1.578125 L 7.609375 -1.578125 C 5.046875 -1.578125 3.765625 -2.453125 3.765625 -4.203125 C 3.765625 -5.378906 4.234375 -6.257812 5.171875 -6.84375 C 6.109375 -7.4375 7.304688 -7.9375 8.765625 -8.34375 Z M 22.515625 8.34375 C 22.515625 9.550781 22.21875 10.582031 21.625 11.4375 C 21.039062 12.289062 20.300781 12.988281 19.40625 13.53125 C 18.519531 14.082031 17.519531 14.476562 16.40625 14.71875 C 15.289062 14.96875 14.222656 15.09375 13.203125 15.09375 C 11.546875 15.09375 10.1875 14.867188 9.125 14.421875 C 8.070312 13.972656 7.238281 13.414062 6.625 12.75 C 6.019531 12.082031 5.59375 11.332031 5.34375 10.5 C 5.101562 9.664062 4.984375 8.882812 4.984375 8.15625 C 4.984375 7.382812 5.113281 6.660156 5.375 5.984375 C 5.644531 5.316406 5.972656 4.75 6.359375 4.28125 C 6.742188 3.820312 7.148438 3.457031 7.578125 3.1875 C 8.003906 2.925781 8.378906 2.796875 8.703125 2.796875 L 16.4375 2.796875 C 17.40625 2.796875 18.265625 2.945312 19.015625 3.25 C 19.765625 3.5625 20.40625 3.976562 20.9375 4.5 C 21.46875 5.03125 21.863281 5.617188 22.125 6.265625 C 22.382812 6.921875 22.515625 7.613281 22.515625 8.34375 Z M 22.515625 8.34375 "/></g></g></g><g fill="#3d3d3d" fill-opacity="1"><g transform="translate(197.25069, 207.726559)"><g><path d="M 7 -23.25 C 5.695312 -22.394531 5.046875 -21.378906 5.046875 -20.203125 C 5.046875 -19.640625 5.238281 -19.125 5.625 -18.65625 C 6.007812 -18.1875 6.550781 -17.953125 7.25 -17.953125 C 7.9375 -17.953125 8.492188 -18.15625 8.921875 -18.5625 C 9.347656 -18.96875 9.5625 -19.472656 9.5625 -20.078125 C 9.5625 -20.367188 9.507812 -20.664062 9.40625 -20.96875 C 9.300781 -21.269531 9.109375 -21.5625 8.828125 -21.84375 C 8.617188 -22.050781 8.453125 -22.191406 8.328125 -22.265625 C 8.210938 -22.347656 8.15625 -22.453125 8.15625 -22.578125 C 8.15625 -22.742188 8.273438 -22.90625 8.515625 -23.0625 C 8.765625 -23.226562 9.070312 -23.367188 9.4375 -23.484375 C 9.800781 -23.609375 10.210938 -23.710938 10.671875 -23.796875 C 11.140625 -23.878906 11.597656 -23.921875 12.046875 -23.921875 C 13.304688 -23.921875 14.300781 -23.675781 15.03125 -23.1875 C 15.757812 -22.695312 16.125 -21.765625 16.125 -20.390625 L 16.125 -13.203125 C 14.257812 -13.203125 12.515625 -13.007812 10.890625 -12.625 C 9.265625 -12.238281 7.84375 -11.679688 6.625 -10.953125 C 5.414062 -10.222656 4.460938 -9.320312 3.765625 -8.25 C 3.078125 -7.175781 2.734375 -5.96875 2.734375 -4.625 C 2.734375 -3.65625 2.90625 -2.8125 3.25 -2.09375 C 3.59375 -1.382812 4.066406 -0.816406 4.671875 -0.390625 C 5.285156 0.0351562 5.988281 0.347656 6.78125 0.546875 C 7.570312 0.753906 8.414062 0.859375 9.3125 0.859375 C 10.25 0.859375 11.09375 0.742188 11.84375 0.515625 C 12.59375 0.296875 13.257812 0.015625 13.84375 -0.328125 C 14.4375 -0.679688 14.929688 -1.050781 15.328125 -1.4375 C 15.734375 -1.820312 16.0625 -2.195312 16.3125 -2.5625 C 16.4375 -1.707031 16.820312 -0.921875 17.46875 -0.203125 C 18.113281 0.503906 19.25 0.859375 20.875 0.859375 C 21.925781 0.859375 22.804688 0.691406 23.515625 0.359375 C 24.234375 0.0351562 24.8125 -0.34375 25.25 -0.78125 C 25.695312 -1.226562 26.007812 -1.6875 26.1875 -2.15625 C 26.375 -2.625 26.46875 -2.976562 26.46875 -3.21875 C 26.46875 -3.425781 26.410156 -3.53125 26.296875 -3.53125 C 26.171875 -3.53125 26.023438 -3.367188 25.859375 -3.046875 C 25.535156 -2.359375 25.128906 -1.800781 24.640625 -1.375 C 24.160156 -0.945312 23.632812 -0.734375 23.0625 -0.734375 C 22.25 -0.734375 21.757812 -1.066406 21.59375 -1.734375 C 21.4375 -2.398438 21.359375 -3.320312 21.359375 -4.5 L 21.359375 -19.234375 C 21.359375 -20.972656 20.707031 -22.316406 19.40625 -23.265625 C 18.113281 -24.222656 16.128906 -24.703125 13.453125 -24.703125 C 12.191406 -24.703125 10.984375 -24.570312 9.828125 -24.3125 C 8.671875 -24.050781 7.726562 -23.695312 7 -23.25 Z M 16.125 -12.59375 L 16.125 -4.140625 C 16.125 -3.773438 15.953125 -3.390625 15.609375 -2.984375 C 15.265625 -2.578125 14.835938 -2.203125 14.328125 -1.859375 C 13.828125 -1.515625 13.300781 -1.238281 12.75 -1.03125 C 12.195312 -0.832031 11.738281 -0.734375 11.375 -0.734375 C 10.125 -0.734375 9.171875 -1.21875 8.515625 -2.1875 C 7.867188 -3.164062 7.546875 -4.484375 7.546875 -6.140625 C 7.546875 -7.484375 7.785156 -8.5625 8.265625 -9.375 C 8.753906 -10.1875 9.394531 -10.8125 10.1875 -11.25 C 10.976562 -11.695312 11.890625 -12.007812 12.921875 -12.1875 C 13.960938 -12.375 15.03125 -12.507812 16.125 -12.59375 Z M 16.125 -12.59375 "/></g></g></g><g fill="#3d3d3d" fill-opacity="1"><g transform="translate(221.772616, 207.726559)"><g><path d="M 8.34375 -10.53125 L 8.34375 -13.203125 C 8.34375 -15.191406 8.460938 -16.851562 8.703125 -18.1875 C 8.941406 -19.53125 9.316406 -20.617188 9.828125 -21.453125 C 10.335938 -22.285156 10.976562 -22.875 11.75 -23.21875 C 12.519531 -23.5625 13.429688 -23.734375 14.484375 -23.734375 C 15.984375 -23.734375 17.003906 -23.539062 17.546875 -23.15625 C 18.097656 -22.769531 18.375 -22.492188 18.375 -22.328125 C 18.375 -22.171875 18.316406 -22.03125 18.203125 -21.90625 C 17.910156 -21.582031 17.691406 -21.25 17.546875 -20.90625 C 17.410156 -20.5625 17.34375 -20.125 17.34375 -19.59375 C 17.34375 -18.78125 17.601562 -18.160156 18.125 -17.734375 C 18.65625 -17.304688 19.269531 -17.09375 19.96875 -17.09375 C 20.769531 -17.09375 21.414062 -17.335938 21.90625 -17.828125 C 22.394531 -18.316406 22.640625 -18.945312 22.640625 -19.71875 C 22.640625 -20.488281 22.375 -21.1875 21.84375 -21.8125 C 21.320312 -22.445312 20.664062 -22.976562 19.875 -23.40625 C 19.082031 -23.832031 18.21875 -24.15625 17.28125 -24.375 C 16.351562 -24.59375 15.460938 -24.703125 14.609375 -24.703125 C 13.023438 -24.703125 11.484375 -24.390625 9.984375 -23.765625 C 8.484375 -23.140625 7.144531 -22.265625 5.96875 -21.140625 C 4.789062 -20.023438 3.835938 -18.675781 3.109375 -17.09375 C 2.378906 -15.519531 2.015625 -13.78125 2.015625 -11.875 C 2.015625 -9.925781 2.367188 -8.171875 3.078125 -6.609375 C 3.785156 -5.046875 4.71875 -3.703125 5.875 -2.578125 C 7.03125 -1.460938 8.347656 -0.609375 9.828125 -0.015625 C 11.304688 0.566406 12.796875 0.859375 14.296875 0.859375 C 15.796875 0.859375 17.113281 0.625 18.25 0.15625 C 19.394531 -0.3125 20.351562 -0.898438 21.125 -1.609375 C 21.894531 -2.316406 22.5 -3.066406 22.9375 -3.859375 C 23.382812 -4.648438 23.710938 -5.375 23.921875 -6.03125 C 24.003906 -6.269531 24.046875 -6.429688 24.046875 -6.515625 C 24.046875 -6.878906 23.878906 -7.0625 23.546875 -7.0625 C 23.304688 -7.0625 23.125 -6.859375 23 -6.453125 C 22.757812 -5.679688 22.394531 -4.921875 21.90625 -4.171875 C 21.414062 -3.421875 20.816406 -2.738281 20.109375 -2.125 C 19.398438 -1.519531 18.566406 -1.035156 17.609375 -0.671875 C 16.660156 -0.304688 15.617188 -0.125 14.484375 -0.125 C 13.222656 -0.125 12.195312 -0.304688 11.40625 -0.671875 C 10.613281 -1.035156 9.984375 -1.632812 9.515625 -2.46875 C 9.054688 -3.300781 8.742188 -4.375 8.578125 -5.6875 C 8.421875 -7.007812 8.34375 -8.625 8.34375 -10.53125 Z M 8.34375 -10.53125 "/></g></g></g><g fill="#3d3d3d" fill-opacity="1"><g transform="translate(244.286503, 207.726559)"><g><path d="M 1.828125 -23.859375 L 1.828125 -22.890625 L 5.84375 -22.890625 L 16 0.25 L 12.46875 9.5625 C 11.945312 10.894531 11.367188 11.882812 10.734375 12.53125 C 10.109375 13.1875 9.515625 13.515625 8.953125 13.515625 C 8.617188 13.515625 8.398438 13.429688 8.296875 13.265625 C 8.203125 13.109375 8.09375 12.90625 7.96875 12.65625 C 7.726562 12.132812 7.425781 11.738281 7.0625 11.46875 C 6.695312 11.207031 6.207031 11.078125 5.59375 11.078125 C 4.90625 11.078125 4.378906 11.300781 4.015625 11.75 C 3.648438 12.195312 3.46875 12.722656 3.46875 13.328125 C 3.46875 14.097656 3.71875 14.71875 4.21875 15.1875 C 4.726562 15.65625 5.515625 15.890625 6.578125 15.890625 C 7.992188 15.890625 9.3125 15.347656 10.53125 14.265625 C 11.75 13.191406 12.703125 11.722656 13.390625 9.859375 L 25.921875 -22.890625 L 29.9375 -22.890625 L 29.9375 -23.859375 L 20.328125 -23.859375 L 20.328125 -22.890625 L 24.828125 -22.890625 L 18.5 -6.328125 L 11.4375 -22.890625 L 16.125 -22.890625 L 16.125 -23.859375 Z M 1.828125 -23.859375 "/></g></g></g></svg>